<?xml version="1.0" standalone="no"?>
<!DOCTYPE svg PUBLIC "-//W3C//DTD SVG 20010904//EN"
 "http://www.w3.org/TR/2001/REC-SVG-20010904/DTD/svg10.dtd">
<svg version="1.0" xmlns="http://www.w3.org/2000/svg"
 width="200.000000pt" height="200.000000pt" viewBox="0 0 200.000000 200.000000"
 preserveAspectRatio="xMidYMid meet">
<metadata>
Created by potrace 1.14, written by Peter Selinger 2001-2017
</metadata>
<g transform="translate(0.000000,200.000000) scale(0.100000,-0.100000)"
fill="#000000" stroke="none">
<path d="M1365 1467 l-27 -22 0 -155 c0 -85 0 -165 1 -177 1 -22 5 -23 71 -23
l70 0 0 77 0 77 68 -67 c91 -91 109 -91 198 -3 35 36 65 63 65 60 1 -2 2 -32
3 -66 l1 -63 38 1 c20 1 37 -3 37 -7 0 -5 -15 -9 -34 -9 -19 0 -36 -6 -38 -12
-2 -7 -4 -72 -3 -145 1 -138 7 -157 50 -173 29 -11 70 7 84 36 16 36 15 301
-1 307 -10 4 -10 6 0 6 9 1 12 41 12 166 0 165 0 166 -26 192 -41 41 -70 28
-186 -87 l-101 -101 -107 106 c-67 66 -115 105 -128 105 -11 0 -33 -10 -47
-23z m565 -361 c0 -2 -7 -7 -16 -10 -8 -3 -12 -2 -9 4 6 10 25 14 25 6z"/>
<path d="M415 1466 c-29 -20 -83 -127 -67 -133 6 -3 12 -11 12 -19 0 -8 -6
-15 -12 -15 -7 -1 -19 -2 -27 -3 -15 -1 -69 -81 -70 -103 -1 -12 80 -43 115
-43 16 0 30 14 53 55 17 30 33 55 35 55 2 0 22 -31 45 -70 26 -43 49 -70 59
-70 9 0 48 -3 86 -7 39 -3 67 -2 64 3 -98 173 -195 333 -211 347 -23 21 -56
22 -82 3z"/>
<path d="M1094 1470 c-140 -31 -263 -172 -278 -317 l-5 -53 34 -1 c120 -3 109
-6 113 36 8 85 74 165 155 190 27 8 52 14 55 14 64 -9 105 64 67 116 -16 21
-83 28 -141 15z"/>
<path d="M107 951 c-37 -64 -67 -127 -67 -139 0 -28 37 -62 68 -62 41 0 58 17
113 115 l54 95 176 0 c201 0 182 8 245 -104 21 -39 46 -78 56 -88 40 -40 118
-7 118 50 0 14 -26 69 -57 123 l-58 98 -70 2 c-161 3 -422 16 -481 24 -30 4
-33 1 -97 -114z"/>
<path d="M1365 1052 l-30 -3 2 -120 c1 -88 5 -126 17 -143 26 -40 81 -39 114
2 8 11 12 56 12 144 l0 128 -42 -3 c-24 -1 -56 -3 -73 -5z"/>
<path d="M834 996 c39 -130 170 -232 311 -244 55 -4 64 -2 83 19 44 46 13 118
-51 120 -49 1 -64 5 -111 33 -25 15 -57 45 -73 71 l-28 44 -72 1 -72 0 13 -44z"/>
<path d="M495 720 c-2 -3 -3 -41 -2 -85 2 -67 5 -80 20 -83 13 -3 17 3 17 25
0 47 11 74 29 71 12 -2 16 -15 16 -48 1 -38 4 -45 20 -45 16 0 20 8 23 42 1
24 -2 52 -8 63 -12 22 -49 27 -68 8 -9 -9 -12 -4 -12 23 0 26 -4 36 -15 36 -9
0 -18 -3 -20 -7z"/>
<path d="M1393 712 c-65 -31 -81 -105 -34 -153 24 -23 38 -29 74 -29 29 0 47
5 50 14 4 10 -6 13 -40 13 -50 0 -73 19 -73 59 0 36 11 54 41 69 50 26 105
-14 91 -68 -7 -26 -17 -11 -17 26 0 27 -3 31 -30 33 -16 1 -36 -1 -43 -4 -21
-7 -33 -49 -22 -76 8 -23 13 -24 65 -21 65 3 74 9 81 56 11 68 -72 115 -143
81z m57 -81 c0 -23 -16 -36 -25 -21 -9 14 1 40 15 40 5 0 10 -9 10 -19z"/>
<path d="M1885 718 c-18 -4 -38 -20 -48 -37 -40 -68 -3 -131 78 -131 41 0 45
2 45 25 0 22 -3 25 -25 19 -31 -8 -55 10 -55 41 0 30 24 49 54 41 20 -5 24 -2
24 18 0 28 -26 37 -73 24z"/>
<path d="M345 696 c-63 -63 1 -164 90 -142 14 4 25 13 25 22 0 12 -7 14 -34 9
-27 -6 -36 -3 -49 15 -17 24 -13 70 6 83 7 4 27 6 45 3 27 -4 33 -2 30 12 -2
12 -15 18 -45 20 -35 3 -48 -2 -68 -22z"/>
<path d="M1567 713 c-2 -5 -3 -36 -2 -71 3 -73 18 -91 77 -92 53 0 74 30 73
106 0 56 -2 59 -26 62 -25 3 -26 1 -27 -54 -1 -100 -43 -100 -44 0 -1 52 -3
56 -24 56 -13 0 -25 -3 -27 -7z"/>
<path d="M1749 708 c-4 -48 -5 -135 -1 -145 2 -7 15 -13 28 -13 23 0 24 2 24
85 0 84 0 85 -25 85 -14 0 -25 -6 -26 -12z"/>
<path d="M970 695 c0 -8 -4 -15 -10 -15 -5 0 -10 -7 -10 -15 0 -8 5 -15 10
-15 6 0 10 -18 10 -40 0 -42 19 -61 55 -56 26 4 31 26 6 26 -17 0 -21 6 -21
35 0 28 4 35 20 35 11 0 20 7 20 15 0 8 -9 15 -20 15 -11 0 -20 7 -20 15 0 8
-9 15 -20 15 -11 0 -20 -7 -20 -15z"/>
<path d="M655 672 c-12 -12 -3 -23 18 -22 37 3 57 0 57 -8 0 -4 -14 -9 -32
-10 -40 -3 -58 -18 -53 -44 7 -36 49 -50 73 -26 8 8 12 9 12 1 0 -6 8 -10 18
-9 24 4 30 87 7 110 -15 15 -87 20 -100 8z m75 -71 c0 -6 -5 -13 -10 -16 -15
-9 -43 3 -35 15 8 13 45 13 45 1z"/>
<path d="M809 668 c-6 -40 -3 -154 5 -160 18 -12 33 3 31 32 -2 26 0 28 17 19
40 -22 83 16 74 67 -8 42 -23 53 -77 52 -27 -1 -50 -5 -50 -10z m82 -28 c1 -5
2 -17 2 -25 0 -29 -3 -35 -18 -35 -18 0 -34 28 -28 51 5 20 42 27 44 9z"/>
<path d="M1081 654 c-33 -42 -8 -103 44 -104 36 0 65 12 65 27 0 10 -6 12 -22
8 -13 -4 -25 -7 -28 -7 -22 0 -30 4 -30 15 0 8 14 13 43 12 39 0 42 2 39 25
-5 54 -76 69 -111 24z m60 -22 c-28 -4 -40 6 -21 18 9 6 20 4 29 -3 12 -10 11
-13 -8 -15z"/>
<path d="M1229 665 c-4 -48 -3 -98 2 -106 12 -20 39 3 36 30 -6 37 10 64 34
58 12 -3 19 0 19 9 0 20 -27 29 -45 14 -10 -9 -15 -9 -15 -1 0 17 -30 13 -31
-4z"/>
</g>
</svg>
